<mxfile host="app.diagrams.net" modified="2021-10-20T09:03:25.798Z" agent="5.0 (Windows NT 10.0; Win64; x64) AppleWebKit/537.36 (KHTML, like Gecko) Chrome/94.0.4606.81 Safari/537.36" etag="X06bhJ3TEkbFhrND7dxN" version="15.5.6" type="github">
  <diagram id="YcN0I72zvOR4fPA20HtF" name="Page-1">
    <mxGraphModel dx="1422" dy="794" grid="1" gridSize="10" guides="1" tooltips="1" connect="1" arrows="1" fold="1" page="1" pageScale="1" pageWidth="827" pageHeight="1169" math="0" shadow="0">
      <root>
        <mxCell id="0" />
        <mxCell id="1" parent="0" />
        <mxCell id="xXfHK_8Ia9Ldp2uMEZia-2" value="start" style="ellipse;whiteSpace=wrap;html=1;" vertex="1" parent="1">
          <mxGeometry x="340" y="50" width="120" height="80" as="geometry" />
        </mxCell>
        <mxCell id="xXfHK_8Ia9Ldp2uMEZia-3" value="wprowadz a" style="shape=parallelogram;perimeter=parallelogramPerimeter;whiteSpace=wrap;html=1;fixedSize=1;" vertex="1" parent="1">
          <mxGeometry x="340" y="190" width="120" height="60" as="geometry" />
        </mxCell>
        <mxCell id="xXfHK_8Ia9Ldp2uMEZia-4" value="a &amp;gt; 0" style="rhombus;whiteSpace=wrap;html=1;" vertex="1" parent="1">
          <mxGeometry x="360" y="290" width="80" height="80" as="geometry" />
        </mxCell>
        <mxCell id="xXfHK_8Ia9Ldp2uMEZia-5" value="pole prostego konta" style="rounded=0;whiteSpace=wrap;html=1;" vertex="1" parent="1">
          <mxGeometry x="340" y="410" width="120" height="60" as="geometry" />
        </mxCell>
        <mxCell id="xXfHK_8Ia9Ldp2uMEZia-6" value="wyswietlenie" style="shape=parallelogram;perimeter=parallelogramPerimeter;whiteSpace=wrap;html=1;fixedSize=1;" vertex="1" parent="1">
          <mxGeometry x="340" y="510" width="120" height="60" as="geometry" />
        </mxCell>
        <mxCell id="xXfHK_8Ia9Ldp2uMEZia-7" value="Koniec" style="ellipse;whiteSpace=wrap;html=1;" vertex="1" parent="1">
          <mxGeometry x="340" y="600" width="120" height="80" as="geometry" />
        </mxCell>
        <mxCell id="xXfHK_8Ia9Ldp2uMEZia-8" value="" style="endArrow=classic;html=1;rounded=0;exitX=0.5;exitY=1;exitDx=0;exitDy=0;entryX=0.5;entryY=0;entryDx=0;entryDy=0;" edge="1" parent="1" source="xXfHK_8Ia9Ldp2uMEZia-2" target="xXfHK_8Ia9Ldp2uMEZia-3">
          <mxGeometry width="50" height="50" relative="1" as="geometry">
            <mxPoint x="390" y="430" as="sourcePoint" />
            <mxPoint x="440" y="380" as="targetPoint" />
            <Array as="points">
              <mxPoint x="390" y="160" />
            </Array>
          </mxGeometry>
        </mxCell>
        <mxCell id="xXfHK_8Ia9Ldp2uMEZia-9" value="" style="endArrow=classic;html=1;rounded=0;exitX=0.5;exitY=1;exitDx=0;exitDy=0;" edge="1" parent="1" source="xXfHK_8Ia9Ldp2uMEZia-3" target="xXfHK_8Ia9Ldp2uMEZia-4">
          <mxGeometry width="50" height="50" relative="1" as="geometry">
            <mxPoint x="390" y="430" as="sourcePoint" />
            <mxPoint x="440" y="380" as="targetPoint" />
          </mxGeometry>
        </mxCell>
        <mxCell id="xXfHK_8Ia9Ldp2uMEZia-11" value="" style="endArrow=classic;html=1;rounded=0;exitX=0.5;exitY=1;exitDx=0;exitDy=0;" edge="1" parent="1" source="xXfHK_8Ia9Ldp2uMEZia-5" target="xXfHK_8Ia9Ldp2uMEZia-6">
          <mxGeometry width="50" height="50" relative="1" as="geometry">
            <mxPoint x="390" y="430" as="sourcePoint" />
            <mxPoint x="440" y="380" as="targetPoint" />
          </mxGeometry>
        </mxCell>
        <mxCell id="xXfHK_8Ia9Ldp2uMEZia-12" value="" style="endArrow=classic;html=1;rounded=0;exitX=0.5;exitY=1;exitDx=0;exitDy=0;entryX=0.5;entryY=0;entryDx=0;entryDy=0;" edge="1" parent="1" source="xXfHK_8Ia9Ldp2uMEZia-6" target="xXfHK_8Ia9Ldp2uMEZia-7">
          <mxGeometry width="50" height="50" relative="1" as="geometry">
            <mxPoint x="390" y="430" as="sourcePoint" />
            <mxPoint x="440" y="380" as="targetPoint" />
          </mxGeometry>
        </mxCell>
        <mxCell id="xXfHK_8Ia9Ldp2uMEZia-14" value="" style="endArrow=classic;html=1;rounded=0;exitX=1;exitY=0.5;exitDx=0;exitDy=0;" edge="1" parent="1" source="xXfHK_8Ia9Ldp2uMEZia-4">
          <mxGeometry width="50" height="50" relative="1" as="geometry">
            <mxPoint x="390" y="430" as="sourcePoint" />
            <mxPoint x="390" y="160" as="targetPoint" />
            <Array as="points">
              <mxPoint x="490" y="340" />
              <mxPoint x="550" y="330" />
              <mxPoint x="550" y="240" />
              <mxPoint x="540" y="160" />
              <mxPoint x="470" y="150" />
            </Array>
          </mxGeometry>
        </mxCell>
        <mxCell id="xXfHK_8Ia9Ldp2uMEZia-15" value="b &amp;gt;0" style="rhombus;whiteSpace=wrap;html=1;" vertex="1" parent="1">
          <mxGeometry x="150" y="400" width="80" height="80" as="geometry" />
        </mxCell>
        <mxCell id="xXfHK_8Ia9Ldp2uMEZia-18" value="wprowadz b" style="shape=parallelogram;perimeter=parallelogramPerimeter;whiteSpace=wrap;html=1;fixedSize=1;" vertex="1" parent="1">
          <mxGeometry x="130" y="300" width="120" height="60" as="geometry" />
        </mxCell>
        <mxCell id="xXfHK_8Ia9Ldp2uMEZia-19" value="" style="endArrow=classic;html=1;rounded=0;exitX=0;exitY=0.5;exitDx=0;exitDy=0;entryX=1;entryY=0.5;entryDx=0;entryDy=0;" edge="1" parent="1" source="xXfHK_8Ia9Ldp2uMEZia-4" target="xXfHK_8Ia9Ldp2uMEZia-18">
          <mxGeometry width="50" height="50" relative="1" as="geometry">
            <mxPoint x="390" y="430" as="sourcePoint" />
            <mxPoint x="440" y="380" as="targetPoint" />
            <Array as="points">
              <mxPoint x="300" y="320" />
            </Array>
          </mxGeometry>
        </mxCell>
        <mxCell id="xXfHK_8Ia9Ldp2uMEZia-20" value="" style="endArrow=classic;html=1;rounded=0;exitX=0.5;exitY=1;exitDx=0;exitDy=0;entryX=0.5;entryY=0;entryDx=0;entryDy=0;" edge="1" parent="1" source="xXfHK_8Ia9Ldp2uMEZia-18" target="xXfHK_8Ia9Ldp2uMEZia-15">
          <mxGeometry width="50" height="50" relative="1" as="geometry">
            <mxPoint x="390" y="430" as="sourcePoint" />
            <mxPoint x="440" y="380" as="targetPoint" />
            <Array as="points">
              <mxPoint x="200" y="380" />
            </Array>
          </mxGeometry>
        </mxCell>
        <mxCell id="xXfHK_8Ia9Ldp2uMEZia-21" value="" style="endArrow=classic;html=1;rounded=0;exitX=1;exitY=0.5;exitDx=0;exitDy=0;entryX=0;entryY=0.5;entryDx=0;entryDy=0;" edge="1" parent="1" source="xXfHK_8Ia9Ldp2uMEZia-15" target="xXfHK_8Ia9Ldp2uMEZia-5">
          <mxGeometry width="50" height="50" relative="1" as="geometry">
            <mxPoint x="390" y="430" as="sourcePoint" />
            <mxPoint x="440" y="380" as="targetPoint" />
            <Array as="points">
              <mxPoint x="280" y="450" />
            </Array>
          </mxGeometry>
        </mxCell>
        <mxCell id="xXfHK_8Ia9Ldp2uMEZia-22" value="" style="endArrow=classic;html=1;rounded=0;exitX=0;exitY=0.5;exitDx=0;exitDy=0;entryX=0;entryY=0.25;entryDx=0;entryDy=0;" edge="1" parent="1" source="xXfHK_8Ia9Ldp2uMEZia-15" target="xXfHK_8Ia9Ldp2uMEZia-18">
          <mxGeometry width="50" height="50" relative="1" as="geometry">
            <mxPoint x="390" y="430" as="sourcePoint" />
            <mxPoint x="60" y="330" as="targetPoint" />
            <Array as="points">
              <mxPoint x="60" y="440" />
              <mxPoint x="80" y="380" />
              <mxPoint x="70" y="318" />
            </Array>
          </mxGeometry>
        </mxCell>
      </root>
    </mxGraphModel>
  </diagram>
</mxfile>
